# xmcd CD database file
#
# Track frame offsets:
#	150
#	13650
#	36362
#	58460
#	75247
#	93237
#	109082
#	122442
#	147827
#	162127
#	175137
#	194560
#	210902
#	232405
#	248000
#	259750
#	279560
#	296055
#
# Disc length: 4105 seconds
#
# Revision: 0
# Processed by: cddbd v1.5.2PL0 Copyright (c) Steve Scherf et al.
# Submitted via: CDex 1.70beta2
#
DISCID=01100712
DTITLE=Varios - Para Todos Los Gustos Vol 3
DYEAR=1900
DGENRE=Salsa
TTITLE0=Pregonando
TTITLE1=Charanguiri
TTITLE2=Prohibida
TTITLE3=Pa'puerto Rico
TTITLE4=Brujeria
TTITLE5=Milonga Cachona
TTITLE6=Juanita Bonita
TTITLE7=Nuestro Sueño
TTITLE8=Almendra
TTITLE9=Carruseles
TTITLE10=Mi Abuelo
TTITLE11=Sirva Trago Cantinero
TTITLE12=Vuelve A Mi Lado
TTITLE13=Porra Cimanera
TTITLE14=El Volador
TTITLE15=Procuro Olvidarte
TTITLE16=Mambo Rock
TTITLE17=Marbella
EXTD=
EXTT0=
EXTT1=
EXTT2=
EXTT3=
EXTT4=
EXTT5=
EXTT6=
EXTT7=
EXTT8=
EXTT9=
EXTT10=
EXTT11=
EXTT12=
EXTT13=
EXTT14=
EXTT15=
EXTT16=
EXTT17=
PLAYORDER=
